<svg width="400" height="400" viewBox="0 0 400 400" fill="none" xmlns="http://www.w3.org/2000/svg">
<path d="M126.455 341.955C122.864 341.932 119.398 341.33 116.057 340.148C112.739 338.966 109.761 337.045 107.125 334.386C104.489 331.727 102.398 328.205 100.852 323.818C99.3295 319.432 98.5682 314.045 98.5682 307.659C98.5909 301.795 99.2614 296.557 100.58 291.943C101.92 287.307 103.83 283.375 106.307 280.148C108.807 276.92 111.795 274.466 115.273 272.784C118.75 271.08 122.648 270.227 126.966 270.227C131.625 270.227 135.739 271.136 139.307 272.955C142.875 274.75 145.739 277.193 147.898 280.284C150.08 283.375 151.398 286.841 151.852 290.682H137.295C136.727 288.25 135.534 286.341 133.716 284.955C131.898 283.568 129.648 282.875 126.966 282.875C122.42 282.875 118.966 284.852 116.602 288.807C114.261 292.761 113.068 298.136 113.023 304.932H113.5C114.545 302.864 115.955 301.102 117.727 299.648C119.523 298.17 121.557 297.045 123.83 296.273C126.125 295.477 128.545 295.08 131.091 295.08C135.227 295.08 138.909 296.057 142.136 298.011C145.364 299.943 147.909 302.602 149.773 305.989C151.636 309.375 152.568 313.25 152.568 317.614C152.568 322.341 151.466 326.545 149.261 330.227C147.08 333.909 144.023 336.795 140.091 338.886C136.182 340.955 131.636 341.977 126.455 341.955ZM126.386 330.364C128.659 330.364 130.693 329.818 132.489 328.727C134.284 327.636 135.693 326.159 136.716 324.295C137.739 322.432 138.25 320.341 138.25 318.023C138.25 315.705 137.739 313.625 136.716 311.784C135.716 309.943 134.33 308.477 132.557 307.386C130.784 306.295 128.761 305.75 126.489 305.75C124.784 305.75 123.205 306.068 121.75 306.705C120.318 307.341 119.057 308.227 117.966 309.364C116.898 310.5 116.057 311.818 115.443 313.318C114.83 314.795 114.523 316.375 114.523 318.057C114.523 320.307 115.034 322.364 116.057 324.227C117.102 326.091 118.511 327.58 120.284 328.693C122.08 329.807 124.114 330.364 126.386 330.364ZM190.409 342.534C184.545 342.511 179.5 341.068 175.273 338.205C171.068 335.341 167.83 331.193 165.557 325.761C163.307 320.33 162.193 313.795 162.216 306.159C162.216 298.545 163.341 292.057 165.591 286.693C167.864 281.33 171.102 277.25 175.307 274.455C179.534 271.636 184.568 270.227 190.409 270.227C196.25 270.227 201.273 271.636 205.477 274.455C209.705 277.273 212.955 281.364 215.227 286.727C217.5 292.068 218.625 298.545 218.602 306.159C218.602 313.818 217.466 320.364 215.193 325.795C212.943 331.227 209.716 335.375 205.511 338.239C201.307 341.102 196.273 342.534 190.409 342.534ZM190.409 330.295C194.409 330.295 197.602 328.284 199.989 324.261C202.375 320.239 203.557 314.205 203.534 306.159C203.534 300.864 202.989 296.455 201.898 292.932C200.83 289.409 199.307 286.761 197.33 284.989C195.375 283.216 193.068 282.33 190.409 282.33C186.432 282.33 183.25 284.318 180.864 288.295C178.477 292.273 177.273 298.227 177.25 306.159C177.25 311.523 177.784 316 178.852 319.591C179.943 323.159 181.477 325.841 183.455 327.636C185.432 329.409 187.75 330.295 190.409 330.295ZM267.344 327.909V324.227C267.344 321.432 267.935 318.864 269.116 316.523C270.321 314.159 272.06 312.273 274.332 310.864C276.628 309.432 279.423 308.716 282.719 308.716C286.06 308.716 288.866 309.42 291.139 310.83C293.435 312.239 295.162 314.125 296.321 316.489C297.503 318.83 298.094 321.409 298.094 324.227V327.909C298.094 330.705 297.503 333.284 296.321 335.648C295.139 337.989 293.401 339.864 291.105 341.273C288.81 342.705 286.014 343.42 282.719 343.42C279.378 343.42 276.571 342.705 274.298 341.273C272.026 339.864 270.298 337.989 269.116 335.648C267.935 333.284 267.344 330.705 267.344 327.909ZM277.264 324.227V327.909C277.264 329.523 277.651 331.045 278.423 332.477C279.219 333.909 280.651 334.625 282.719 334.625C284.787 334.625 286.196 333.92 286.946 332.511C287.719 331.102 288.105 329.568 288.105 327.909V324.227C288.105 322.568 287.741 321.023 287.014 319.591C286.287 318.159 284.855 317.443 282.719 317.443C280.673 317.443 279.253 318.159 278.457 319.591C277.662 321.023 277.264 322.568 277.264 324.227ZM231.514 287.955V284.273C231.514 281.455 232.116 278.875 233.321 276.534C234.526 274.17 236.264 272.284 238.537 270.875C240.832 269.466 243.605 268.761 246.855 268.761C250.219 268.761 253.037 269.466 255.31 270.875C257.582 272.284 259.31 274.17 260.491 276.534C261.673 278.875 262.264 281.455 262.264 284.273V287.955C262.264 290.773 261.662 293.352 260.457 295.693C259.276 298.034 257.537 299.909 255.241 301.318C252.969 302.705 250.173 303.398 246.855 303.398C243.537 303.398 240.73 302.693 238.435 301.284C236.162 299.852 234.435 297.977 233.253 295.659C232.094 293.318 231.514 290.75 231.514 287.955ZM241.503 284.273V287.955C241.503 289.614 241.889 291.148 242.662 292.557C243.457 293.966 244.855 294.67 246.855 294.67C248.946 294.67 250.366 293.966 251.116 292.557C251.889 291.148 252.276 289.614 252.276 287.955V284.273C252.276 282.614 251.912 281.068 251.185 279.636C250.457 278.205 249.014 277.489 246.855 277.489C244.832 277.489 243.435 278.216 242.662 279.67C241.889 281.125 241.503 282.659 241.503 284.273ZM236.014 341L284.014 271.182H292.946L244.946 341H236.014Z" fill="#874FF7"/>
<path d="M199.171 32C140.783 32 144.429 52.2518 144.429 52.2518L144.494 73.2332H200.213V79.5324H122.363C122.363 79.5324 85 76.1433 85 123.263C85 170.384 117.611 168.713 117.611 168.713H137.073V146.847C137.073 146.847 136.024 120.764 169.164 120.764H224.427C224.427 120.764 255.476 121.165 255.476 96.7639V56.4174C255.476 56.4174 260.191 32 199.171 32ZM168.448 46.1096C169.765 46.1087 171.069 46.3154 172.285 46.718C173.502 47.1205 174.607 47.711 175.539 48.4557C176.47 49.2003 177.208 50.0845 177.711 51.0576C178.214 52.0307 178.473 53.0737 178.472 54.1268C178.473 55.1799 178.214 56.2228 177.711 57.1959C177.208 58.169 176.47 59.0532 175.539 59.7979C174.607 60.5425 173.502 61.133 172.285 61.5356C171.069 61.9382 169.765 62.1449 168.448 62.1439C167.131 62.1449 165.827 61.9382 164.611 61.5356C163.394 61.133 162.288 60.5425 161.357 59.7979C160.426 59.0532 159.688 58.169 159.185 57.1959C158.681 56.2228 158.423 55.1799 158.424 54.1268C158.423 53.0737 158.681 52.0307 159.185 51.0576C159.688 50.0845 160.426 49.2003 161.357 48.4557C162.288 47.711 163.394 47.1205 164.611 46.718C165.827 46.3154 167.131 46.1087 168.448 46.1096Z" fill="url(#paint0_linear_24_2)"/>
<path d="M200.829 215C259.218 215 255.572 194.748 255.572 194.748L255.507 173.767H199.787V167.468H277.637C277.637 167.468 315 170.857 315 123.736C315 76.6159 282.389 78.287 282.389 78.287H262.927V100.152C262.927 100.152 263.976 126.235 230.836 126.235H175.573C175.573 126.235 144.524 125.834 144.524 150.236V190.583C144.524 190.583 139.809 215 200.829 215M231.552 200.892C230.235 200.893 228.931 200.686 227.715 200.283C226.498 199.881 225.393 199.29 224.462 198.546C223.53 197.801 222.792 196.917 222.289 195.944C221.786 194.971 221.527 193.928 221.528 192.875C221.527 191.822 221.785 190.778 222.289 189.805C222.792 188.832 223.53 187.948 224.461 187.203C225.392 186.458 226.498 185.868 227.715 185.465C228.931 185.063 230.235 184.856 231.552 184.857C232.869 184.856 234.173 185.063 235.389 185.465C236.606 185.868 237.712 186.458 238.643 187.203C239.574 187.948 240.312 188.832 240.815 189.805C241.319 190.778 241.577 191.821 241.576 192.874C241.577 193.927 241.319 194.97 240.815 195.943C240.312 196.916 239.574 197.8 238.643 198.545C237.712 199.29 236.606 199.88 235.389 200.283C234.173 200.685 232.869 200.893 231.552 200.892Z" fill="url(#paint1_linear_24_2)"/>
<defs>
<linearGradient id="paint0_linear_24_2" x1="2295.29" y1="1677.98" x2="11208.5" y2="12710.9" gradientUnits="userSpaceOnUse">
<stop stop-color="#387EB8"/>
<stop offset="1" stop-color="#366994"/>
</linearGradient>
<linearGradient id="paint1_linear_24_2" x1="3406.92" y1="2891.85" x2="13076.9" y2="14321.2" gradientUnits="userSpaceOnUse">
<stop stop-color="#FFE052"/>
<stop offset="1" stop-color="#FFC331"/>
</linearGradient>
</defs>
</svg>
