<svg width="400" height="400" viewBox="0 0 400 400" fill="none" xmlns="http://www.w3.org/2000/svg">
<path d="M126.455 341.955C122.864 341.932 119.398 341.33 116.057 340.148C112.739 338.966 109.761 337.045 107.125 334.386C104.489 331.727 102.398 328.205 100.852 323.818C99.3295 319.432 98.5682 314.045 98.5682 307.659C98.5909 301.795 99.2614 296.557 100.58 291.943C101.92 287.307 103.83 283.375 106.307 280.148C108.807 276.92 111.795 274.466 115.273 272.784C118.75 271.08 122.648 270.227 126.966 270.227C131.625 270.227 135.739 271.136 139.307 272.955C142.875 274.75 145.739 277.193 147.898 280.284C150.08 283.375 151.398 286.841 151.852 290.682H137.295C136.727 288.25 135.534 286.341 133.716 284.955C131.898 283.568 129.648 282.875 126.966 282.875C122.42 282.875 118.966 284.852 116.602 288.807C114.261 292.761 113.068 298.136 113.023 304.932H113.5C114.545 302.864 115.955 301.102 117.727 299.648C119.523 298.17 121.557 297.045 123.83 296.273C126.125 295.477 128.545 295.08 131.091 295.08C135.227 295.08 138.909 296.057 142.136 298.011C145.364 299.943 147.909 302.602 149.773 305.989C151.636 309.375 152.568 313.25 152.568 317.614C152.568 322.341 151.466 326.545 149.261 330.227C147.08 333.909 144.023 336.795 140.091 338.886C136.182 340.955 131.636 341.977 126.455 341.955ZM126.386 330.364C128.659 330.364 130.693 329.818 132.489 328.727C134.284 327.636 135.693 326.159 136.716 324.295C137.739 322.432 138.25 320.341 138.25 318.023C138.25 315.705 137.739 313.625 136.716 311.784C135.716 309.943 134.33 308.477 132.557 307.386C130.784 306.295 128.761 305.75 126.489 305.75C124.784 305.75 123.205 306.068 121.75 306.705C120.318 307.341 119.057 308.227 117.966 309.364C116.898 310.5 116.057 311.818 115.443 313.318C114.83 314.795 114.523 316.375 114.523 318.057C114.523 320.307 115.034 322.364 116.057 324.227C117.102 326.091 118.511 327.58 120.284 328.693C122.08 329.807 124.114 330.364 126.386 330.364ZM190.409 342.534C184.545 342.511 179.5 341.068 175.273 338.205C171.068 335.341 167.83 331.193 165.557 325.761C163.307 320.33 162.193 313.795 162.216 306.159C162.216 298.545 163.341 292.057 165.591 286.693C167.864 281.33 171.102 277.25 175.307 274.455C179.534 271.636 184.568 270.227 190.409 270.227C196.25 270.227 201.273 271.636 205.477 274.455C209.705 277.273 212.955 281.364 215.227 286.727C217.5 292.068 218.625 298.545 218.602 306.159C218.602 313.818 217.466 320.364 215.193 325.795C212.943 331.227 209.716 335.375 205.511 338.239C201.307 341.102 196.273 342.534 190.409 342.534ZM190.409 330.295C194.409 330.295 197.602 328.284 199.989 324.261C202.375 320.239 203.557 314.205 203.534 306.159C203.534 300.864 202.989 296.455 201.898 292.932C200.83 289.409 199.307 286.761 197.33 284.989C195.375 283.216 193.068 282.33 190.409 282.33C186.432 282.33 183.25 284.318 180.864 288.295C178.477 292.273 177.273 298.227 177.25 306.159C177.25 311.523 177.784 316 178.852 319.591C179.943 323.159 181.477 325.841 183.455 327.636C185.432 329.409 187.75 330.295 190.409 330.295ZM267.344 327.909V324.227C267.344 321.432 267.935 318.864 269.116 316.523C270.321 314.159 272.06 312.273 274.332 310.864C276.628 309.432 279.423 308.716 282.719 308.716C286.06 308.716 288.866 309.42 291.139 310.83C293.435 312.239 295.162 314.125 296.321 316.489C297.503 318.83 298.094 321.409 298.094 324.227V327.909C298.094 330.705 297.503 333.284 296.321 335.648C295.139 337.989 293.401 339.864 291.105 341.273C288.81 342.705 286.014 343.42 282.719 343.42C279.378 343.42 276.571 342.705 274.298 341.273C272.026 339.864 270.298 337.989 269.116 335.648C267.935 333.284 267.344 330.705 267.344 327.909ZM277.264 324.227V327.909C277.264 329.523 277.651 331.045 278.423 332.477C279.219 333.909 280.651 334.625 282.719 334.625C284.787 334.625 286.196 333.92 286.946 332.511C287.719 331.102 288.105 329.568 288.105 327.909V324.227C288.105 322.568 287.741 321.023 287.014 319.591C286.287 318.159 284.855 317.443 282.719 317.443C280.673 317.443 279.253 318.159 278.457 319.591C277.662 321.023 277.264 322.568 277.264 324.227ZM231.514 287.955V284.273C231.514 281.455 232.116 278.875 233.321 276.534C234.526 274.17 236.264 272.284 238.537 270.875C240.832 269.466 243.605 268.761 246.855 268.761C250.219 268.761 253.037 269.466 255.31 270.875C257.582 272.284 259.31 274.17 260.491 276.534C261.673 278.875 262.264 281.455 262.264 284.273V287.955C262.264 290.773 261.662 293.352 260.457 295.693C259.276 298.034 257.537 299.909 255.241 301.318C252.969 302.705 250.173 303.398 246.855 303.398C243.537 303.398 240.73 302.693 238.435 301.284C236.162 299.852 234.435 297.977 233.253 295.659C232.094 293.318 231.514 290.75 231.514 287.955ZM241.503 284.273V287.955C241.503 289.614 241.889 291.148 242.662 292.557C243.457 293.966 244.855 294.67 246.855 294.67C248.946 294.67 250.366 293.966 251.116 292.557C251.889 291.148 252.276 289.614 252.276 287.955V284.273C252.276 282.614 251.912 281.068 251.185 279.636C250.457 278.205 249.014 277.489 246.855 277.489C244.832 277.489 243.435 278.216 242.662 279.67C241.889 281.125 241.503 282.659 241.503 284.273ZM236.014 341L284.014 271.182H292.946L244.946 341H236.014Z" fill="#874FF7"/>
<path d="M199.781 157.398C247.132 157.398 285.562 143.102 285.562 125.373C285.562 107.645 247.132 93.3484 199.781 93.3484C152.43 93.3484 114 107.645 114 125.373C114 143.102 152.43 157.398 199.781 157.398Z" stroke="#084A55" stroke-width="10" stroke-linecap="round" stroke-linejoin="round"/>
<path d="M171.416 141.386C195.092 181.417 227.002 206.808 242.672 198.001C258.341 189.08 251.822 149.506 228.146 109.361C204.471 69.3296 172.56 43.9384 156.891 52.7452C141.221 61.6665 147.741 101.24 171.416 141.386Z" stroke="#084A55" stroke-width="10" stroke-linecap="round" stroke-linejoin="round"/>
<path d="M171.416 109.361C147.741 149.392 141.221 189.08 156.891 198.001C172.56 206.808 204.471 181.417 228.146 141.386C251.822 101.355 258.341 61.6665 242.672 52.7452C227.002 43.9384 195.092 69.3296 171.416 109.361Z" stroke="#084A55" stroke-width="10" stroke-linecap="round" stroke-linejoin="round"/>
<path d="M205.5 125.373C205.5 126.89 204.897 128.345 203.825 129.417C202.753 130.49 201.298 131.092 199.781 131.092C198.265 131.092 196.81 130.49 195.737 129.417C194.665 128.345 194.062 126.89 194.062 125.373C194.062 123.857 194.665 122.402 195.737 121.33C196.81 120.257 198.265 119.655 199.781 119.655C201.298 119.655 202.753 120.257 203.825 121.33C204.897 122.402 205.5 123.857 205.5 125.373Z" stroke="#084A55" stroke-width="10" stroke-linecap="round" stroke-linejoin="round"/>
</svg>
