<svg width="400" height="400" viewBox="0 0 400 400" fill="none" xmlns="http://www.w3.org/2000/svg">
<path d="M131.92 270.367C135.511 270.367 138.966 270.969 142.284 272.174C145.625 273.378 148.602 275.299 151.216 277.935C153.852 280.571 155.932 284.071 157.455 288.435C159 292.776 159.784 298.106 159.807 304.424C159.807 310.356 159.136 315.651 157.795 320.31C156.477 324.946 154.58 328.89 152.102 332.14C149.625 335.39 146.636 337.867 143.136 339.571C139.636 341.253 135.727 342.094 131.409 342.094C126.75 342.094 122.636 341.196 119.068 339.401C115.5 337.583 112.625 335.117 110.443 332.003C108.284 328.867 106.977 325.344 106.523 321.435H121.08C121.648 323.981 122.841 325.958 124.659 327.367C126.477 328.753 128.727 329.446 131.409 329.446C135.955 329.446 139.409 327.469 141.773 323.515C144.136 319.537 145.33 314.094 145.352 307.185H144.875C143.83 309.231 142.42 310.992 140.648 312.469C138.875 313.924 136.841 315.049 134.545 315.844C132.273 316.64 129.852 317.037 127.284 317.037C123.17 317.037 119.5 316.071 116.273 314.14C113.045 312.208 110.5 309.549 108.636 306.162C106.773 302.776 105.841 298.912 105.841 294.571C105.818 289.89 106.898 285.719 109.08 282.06C111.261 278.401 114.307 275.537 118.216 273.469C122.148 271.378 126.716 270.344 131.92 270.367ZM132.023 281.958C129.727 281.958 127.682 282.503 125.886 283.594C124.114 284.685 122.705 286.151 121.659 287.992C120.636 289.833 120.136 291.89 120.159 294.162C120.159 296.458 120.659 298.526 121.659 300.367C122.682 302.185 124.068 303.64 125.818 304.731C127.591 305.799 129.614 306.333 131.886 306.333C133.591 306.333 135.17 306.015 136.625 305.378C138.08 304.742 139.341 303.867 140.409 302.753C141.5 301.617 142.352 300.31 142.966 298.833C143.58 297.356 143.886 295.787 143.886 294.128C143.864 291.924 143.341 289.901 142.318 288.06C141.295 286.219 139.886 284.742 138.091 283.628C136.295 282.515 134.273 281.958 132.023 281.958ZM197.409 342.674C191.545 342.651 186.5 341.208 182.273 338.344C178.068 335.481 174.83 331.333 172.557 325.901C170.307 320.469 169.193 313.935 169.216 306.299C169.216 298.685 170.341 292.196 172.591 286.833C174.864 281.469 178.102 277.39 182.307 274.594C186.534 271.776 191.568 270.367 197.409 270.367C203.25 270.367 208.273 271.776 212.477 274.594C216.705 277.412 219.955 281.503 222.227 286.867C224.5 292.208 225.625 298.685 225.602 306.299C225.602 313.958 224.466 320.503 222.193 325.935C219.943 331.367 216.716 335.515 212.511 338.378C208.307 341.242 203.273 342.674 197.409 342.674ZM197.409 330.435C201.409 330.435 204.602 328.424 206.989 324.401C209.375 320.378 210.557 314.344 210.534 306.299C210.534 301.003 209.989 296.594 208.898 293.071C207.83 289.549 206.307 286.901 204.33 285.128C202.375 283.356 200.068 282.469 197.409 282.469C193.432 282.469 190.25 284.458 187.864 288.435C185.477 292.412 184.273 298.367 184.25 306.299C184.25 311.662 184.784 316.14 185.852 319.731C186.943 323.299 188.477 325.981 190.455 327.776C192.432 329.549 194.75 330.435 197.409 330.435ZM274.344 328.049V324.367C274.344 321.571 274.935 319.003 276.116 316.662C277.321 314.299 279.06 312.412 281.332 311.003C283.628 309.571 286.423 308.856 289.719 308.856C293.06 308.856 295.866 309.56 298.139 310.969C300.435 312.378 302.162 314.265 303.321 316.628C304.503 318.969 305.094 321.549 305.094 324.367V328.049C305.094 330.844 304.503 333.424 303.321 335.787C302.139 338.128 300.401 340.003 298.105 341.412C295.81 342.844 293.014 343.56 289.719 343.56C286.378 343.56 283.571 342.844 281.298 341.412C279.026 340.003 277.298 338.128 276.116 335.787C274.935 333.424 274.344 330.844 274.344 328.049ZM284.264 324.367V328.049C284.264 329.662 284.651 331.185 285.423 332.617C286.219 334.049 287.651 334.765 289.719 334.765C291.787 334.765 293.196 334.06 293.946 332.651C294.719 331.242 295.105 329.708 295.105 328.049V324.367C295.105 322.708 294.741 321.162 294.014 319.731C293.287 318.299 291.855 317.583 289.719 317.583C287.673 317.583 286.253 318.299 285.457 319.731C284.662 321.162 284.264 322.708 284.264 324.367ZM238.514 288.094V284.412C238.514 281.594 239.116 279.015 240.321 276.674C241.526 274.31 243.264 272.424 245.537 271.015C247.832 269.606 250.605 268.901 253.855 268.901C257.219 268.901 260.037 269.606 262.31 271.015C264.582 272.424 266.31 274.31 267.491 276.674C268.673 279.015 269.264 281.594 269.264 284.412V288.094C269.264 290.912 268.662 293.492 267.457 295.833C266.276 298.174 264.537 300.049 262.241 301.458C259.969 302.844 257.173 303.537 253.855 303.537C250.537 303.537 247.73 302.833 245.435 301.424C243.162 299.992 241.435 298.117 240.253 295.799C239.094 293.458 238.514 290.89 238.514 288.094ZM248.503 284.412V288.094C248.503 289.753 248.889 291.287 249.662 292.696C250.457 294.106 251.855 294.81 253.855 294.81C255.946 294.81 257.366 294.106 258.116 292.696C258.889 291.287 259.276 289.753 259.276 288.094V284.412C259.276 282.753 258.912 281.208 258.185 279.776C257.457 278.344 256.014 277.628 253.855 277.628C251.832 277.628 250.435 278.356 249.662 279.81C248.889 281.265 248.503 282.799 248.503 284.412ZM243.014 341.14L291.014 271.321H299.946L251.946 341.14H243.014Z" fill="#874FF7"/>
<g clip-path="url(#clip0_24_2)">
<mask id="mask0_24_2" style="mask-type:luminance" maskUnits="userSpaceOnUse" x="86" y="27" width="227" height="183">
<path d="M86 27H313V210H86V27Z" fill="white"/>
</mask>
<g mask="url(#mask0_24_2)">
<path d="M134.048 27H144.282V35.1511H153.646V27H163.88V51.6745H153.646V43.4166H144.282V51.6745H134.058L134.048 27ZM177.33 35.1816H168.325V27H196.577V35.1816H187.564V51.6745H177.33V35.1816ZM201.061 27H211.73L218.294 35.6696L224.848 27H235.517V51.6745H225.331V39.444L218.294 48.2204H218.114L211.068 39.4516V51.6745H201.061V27ZM240.606 27H250.849V43.5234H265.226V51.6821H240.606V27Z" fill="#E44D26"/>
<path fill-rule="evenodd" clip-rule="evenodd" d="M133.727 195.299L114.375 62.9672H284.625L265.264 195.284L199.405 210L133.727 195.299ZM172.856 122.862L171.021 106.239H248.059L249.856 90.013H149.03L154.459 139.095H224.234L221.897 160.14L199.443 165.035H199.424L177.008 160.155L175.57 147.216H155.348L158.167 172.699L199.405 181.925L240.71 172.699L245.742 127.223L246.234 122.869L172.856 122.862Z" fill="#E44D26"/>
</g>
</g>
<defs>
<clipPath id="clip0_24_2">
<rect width="227" height="183" fill="white" transform="translate(86 27)"/>
</clipPath>
</defs>
</svg>
