<svg width="400" height="400" viewBox="0 0 400 400" fill="none" xmlns="http://www.w3.org/2000/svg">
<path d="M131.92 270.367C135.511 270.367 138.966 270.969 142.284 272.174C145.625 273.378 148.602 275.299 151.216 277.935C153.852 280.571 155.932 284.071 157.455 288.435C159 292.776 159.784 298.106 159.807 304.424C159.807 310.356 159.136 315.651 157.795 320.31C156.477 324.946 154.58 328.89 152.102 332.14C149.625 335.39 146.636 337.867 143.136 339.571C139.636 341.253 135.727 342.094 131.409 342.094C126.75 342.094 122.636 341.196 119.068 339.401C115.5 337.583 112.625 335.117 110.443 332.003C108.284 328.867 106.977 325.344 106.523 321.435H121.08C121.648 323.981 122.841 325.958 124.659 327.367C126.477 328.753 128.727 329.446 131.409 329.446C135.955 329.446 139.409 327.469 141.773 323.515C144.136 319.537 145.33 314.094 145.352 307.185H144.875C143.83 309.231 142.42 310.992 140.648 312.469C138.875 313.924 136.841 315.049 134.545 315.844C132.273 316.64 129.852 317.037 127.284 317.037C123.17 317.037 119.5 316.071 116.273 314.14C113.045 312.208 110.5 309.549 108.636 306.162C106.773 302.776 105.841 298.912 105.841 294.571C105.818 289.89 106.898 285.719 109.08 282.06C111.261 278.401 114.307 275.537 118.216 273.469C122.148 271.378 126.716 270.344 131.92 270.367ZM132.023 281.958C129.727 281.958 127.682 282.503 125.886 283.594C124.114 284.685 122.705 286.151 121.659 287.992C120.636 289.833 120.136 291.89 120.159 294.162C120.159 296.458 120.659 298.526 121.659 300.367C122.682 302.185 124.068 303.64 125.818 304.731C127.591 305.799 129.614 306.333 131.886 306.333C133.591 306.333 135.17 306.015 136.625 305.378C138.08 304.742 139.341 303.867 140.409 302.753C141.5 301.617 142.352 300.31 142.966 298.833C143.58 297.356 143.886 295.787 143.886 294.128C143.864 291.924 143.341 289.901 142.318 288.06C141.295 286.219 139.886 284.742 138.091 283.628C136.295 282.515 134.273 281.958 132.023 281.958ZM197.409 342.674C191.545 342.651 186.5 341.208 182.273 338.344C178.068 335.481 174.83 331.333 172.557 325.901C170.307 320.469 169.193 313.935 169.216 306.299C169.216 298.685 170.341 292.196 172.591 286.833C174.864 281.469 178.102 277.39 182.307 274.594C186.534 271.776 191.568 270.367 197.409 270.367C203.25 270.367 208.273 271.776 212.477 274.594C216.705 277.412 219.955 281.503 222.227 286.867C224.5 292.208 225.625 298.685 225.602 306.299C225.602 313.958 224.466 320.503 222.193 325.935C219.943 331.367 216.716 335.515 212.511 338.378C208.307 341.242 203.273 342.674 197.409 342.674ZM197.409 330.435C201.409 330.435 204.602 328.424 206.989 324.401C209.375 320.378 210.557 314.344 210.534 306.299C210.534 301.003 209.989 296.594 208.898 293.071C207.83 289.549 206.307 286.901 204.33 285.128C202.375 283.356 200.068 282.469 197.409 282.469C193.432 282.469 190.25 284.458 187.864 288.435C185.477 292.412 184.273 298.367 184.25 306.299C184.25 311.662 184.784 316.14 185.852 319.731C186.943 323.299 188.477 325.981 190.455 327.776C192.432 329.549 194.75 330.435 197.409 330.435ZM274.344 328.049V324.367C274.344 321.571 274.935 319.003 276.116 316.662C277.321 314.299 279.06 312.412 281.332 311.003C283.628 309.571 286.423 308.856 289.719 308.856C293.06 308.856 295.866 309.56 298.139 310.969C300.435 312.378 302.162 314.265 303.321 316.628C304.503 318.969 305.094 321.549 305.094 324.367V328.049C305.094 330.844 304.503 333.424 303.321 335.787C302.139 338.128 300.401 340.003 298.105 341.412C295.81 342.844 293.014 343.56 289.719 343.56C286.378 343.56 283.571 342.844 281.298 341.412C279.026 340.003 277.298 338.128 276.116 335.787C274.935 333.424 274.344 330.844 274.344 328.049ZM284.264 324.367V328.049C284.264 329.662 284.651 331.185 285.423 332.617C286.219 334.049 287.651 334.765 289.719 334.765C291.787 334.765 293.196 334.06 293.946 332.651C294.719 331.242 295.105 329.708 295.105 328.049V324.367C295.105 322.708 294.741 321.162 294.014 319.731C293.287 318.299 291.855 317.583 289.719 317.583C287.673 317.583 286.253 318.299 285.457 319.731C284.662 321.162 284.264 322.708 284.264 324.367ZM238.514 288.094V284.412C238.514 281.594 239.116 279.015 240.321 276.674C241.526 274.31 243.264 272.424 245.537 271.015C247.832 269.606 250.605 268.901 253.855 268.901C257.219 268.901 260.037 269.606 262.31 271.015C264.582 272.424 266.31 274.31 267.491 276.674C268.673 279.015 269.264 281.594 269.264 284.412V288.094C269.264 290.912 268.662 293.492 267.457 295.833C266.276 298.174 264.537 300.049 262.241 301.458C259.969 302.844 257.173 303.537 253.855 303.537C250.537 303.537 247.73 302.833 245.435 301.424C243.162 299.992 241.435 298.117 240.253 295.799C239.094 293.458 238.514 290.89 238.514 288.094ZM248.503 284.412V288.094C248.503 289.753 248.889 291.287 249.662 292.696C250.457 294.106 251.855 294.81 253.855 294.81C255.946 294.81 257.366 294.106 258.116 292.696C258.889 291.287 259.276 289.753 259.276 288.094V284.412C259.276 282.753 258.912 281.208 258.185 279.776C257.457 278.344 256.014 277.628 253.855 277.628C251.832 277.628 250.435 278.356 249.662 279.81C248.889 281.265 248.503 282.799 248.503 284.412ZM243.014 341.14L291.014 271.321H299.946L251.946 341.14H243.014Z" fill="#874FF7"/>
<path fill-rule="evenodd" clip-rule="evenodd" d="M200.168 231.14C261.418 231.049 311 182.693 311 123.045C311 64.3655 261.646 16.0389 202.684 15.0173C140.761 13.9455 89.0161 62.7126 89 121.85C88.9821 182.69 138.343 231.226 200.168 231.14ZM199.987 20.2499C258.793 20.2309 305.646 66.6011 305.628 124.798C305.609 179.741 257.513 225.704 200.03 225.716C141.468 225.728 94.3735 179.646 94.3753 122.334C94.3789 66.4988 142.206 20.269 199.987 20.2499ZM155.605 74.4769C156.567 77.5866 153.876 78.6689 151.015 78.8857C148.003 79.1112 144.994 79.3314 141.499 79.5899C153.036 112.949 164.399 145.813 176.033 179.443C176.862 178.127 177.203 177.755 177.353 177.322C183.74 158.795 190.163 140.281 196.387 121.702C196.955 120.008 196.673 117.763 196.051 116.022C192.757 106.795 188.812 97.7696 185.924 88.4317C183.949 82.0388 181.329 77.9023 173.543 78.6429C172.217 78.7695 170.598 75.9997 169.113 74.5688C170.909 73.5282 172.693 71.6135 174.505 71.5874C190.359 71.3511 206.217 71.3557 222.071 71.6013C223.891 71.6308 225.674 73.5958 227.47 74.6625C225.897 76.0569 224.541 78.1486 222.702 78.688C219.752 79.5517 216.48 79.3887 212.949 79.6939L247.525 179.525C252.763 162.639 257.636 147.133 262.376 131.588C266.604 117.711 264.084 104.752 256.439 92.53C254.141 88.8549 251.318 85.289 250.015 81.2809C248.535 76.7212 247.306 71.5302 248.09 66.9567C249.422 59.2057 255.549 55.3572 263.841 54.6201C218.465 13.7478 147.16 28.379 120.886 72.7876C131 72.335 140.657 71.7401 150.321 71.6117C152.148 71.5892 155.176 73.0877 155.605 74.4769ZM173.685 209.708C173.474 210.306 173.461 210.972 173.295 211.966C192.85 217.228 212.028 216.848 231.657 210.429L201.671 130.717C192.075 157.793 182.872 183.746 173.685 209.708ZM158.574 206.104L113.396 85.8249C93.0154 124.463 108.519 183.415 158.574 206.104ZM295.151 128.817C296.584 110.547 290.09 85.2509 284.483 81.7717C283.857 88.4924 284.293 95.9693 282.306 102.782C277.629 118.834 271.911 134.606 266.403 150.422C260.417 167.613 254.195 184.726 248.074 201.874C276.831 185.329 292.633 160.911 295.151 128.817Z" fill="black"/>
</svg>
