<svg width="400" height="400" viewBox="0 0 400 400" fill="none" xmlns="http://www.w3.org/2000/svg">
<path d="M162.5 240C183.2 240 200 226.336 200 209.5V179H162.5C141.8 179 125 192.664 125 209.5C125 226.336 141.8 240 162.5 240Z" fill="#0ACF83"/>
<path d="M125 148.5C125 131.664 141.8 118 162.5 118H200V179H162.5C141.8 179 125 165.336 125 148.5Z" fill="#A259FF"/>
<path d="M125 87.5C125 70.664 141.8 57 162.5 57H200V118H162.5C141.8 118 125 104.336 125 87.5Z" fill="#F24E1E"/>
<path d="M200 57H237.5C258.2 57 275 70.664 275 87.5C275 104.336 258.2 118 237.5 118H200V57Z" fill="#FF7262"/>
<path d="M275 148.5C275 165.336 258.2 179 237.5 179C216.8 179 200 165.336 200 148.5C200 131.664 216.8 118 237.5 118C258.2 118 275 131.664 275 148.5Z" fill="#1ABCFE"/>
<path d="M125.705 341.955C120.455 341.955 115.784 341.102 111.693 339.398C107.625 337.67 104.432 335.318 102.114 332.341C99.7955 329.364 98.6364 325.989 98.6364 322.216C98.6364 319.307 99.2955 316.636 100.614 314.205C101.955 311.75 103.773 309.716 106.068 308.102C108.364 306.466 110.932 305.42 113.773 304.966V304.489C110.045 303.739 107.023 301.932 104.705 299.068C102.386 296.182 101.227 292.83 101.227 289.011C101.227 285.398 102.284 282.182 104.398 279.364C106.511 276.523 109.409 274.295 113.091 272.682C116.795 271.045 121 270.227 125.705 270.227C130.409 270.227 134.602 271.045 138.284 272.682C141.989 274.318 144.898 276.557 147.011 279.398C149.125 282.216 150.193 285.42 150.216 289.011C150.193 292.852 149.011 296.205 146.67 299.068C144.33 301.932 141.33 303.739 137.67 304.489V304.966C140.466 305.42 143 306.466 145.273 308.102C147.568 309.716 149.386 311.75 150.727 314.205C152.091 316.636 152.784 319.307 152.807 322.216C152.784 325.989 151.614 329.364 149.295 332.341C146.977 335.318 143.773 337.67 139.682 339.398C135.614 341.102 130.955 341.955 125.705 341.955ZM125.705 331.114C128.045 331.114 130.091 330.693 131.841 329.852C133.591 328.989 134.955 327.807 135.932 326.307C136.932 324.784 137.432 323.034 137.432 321.057C137.432 319.034 136.92 317.25 135.898 315.705C134.875 314.136 133.489 312.909 131.739 312.023C129.989 311.114 127.977 310.659 125.705 310.659C123.455 310.659 121.443 311.114 119.67 312.023C117.898 312.909 116.5 314.136 115.477 315.705C114.477 317.25 113.977 319.034 113.977 321.057C113.977 323.034 114.466 324.784 115.443 326.307C116.42 327.807 117.795 328.989 119.568 329.852C121.341 330.693 123.386 331.114 125.705 331.114ZM125.705 299.92C127.659 299.92 129.398 299.523 130.92 298.727C132.443 297.932 133.636 296.83 134.5 295.42C135.364 294.011 135.795 292.386 135.795 290.545C135.795 288.727 135.364 287.136 134.5 285.773C133.636 284.386 132.455 283.307 130.955 282.534C129.455 281.739 127.705 281.341 125.705 281.341C123.727 281.341 121.977 281.739 120.455 282.534C118.932 283.307 117.739 284.386 116.875 285.773C116.034 287.136 115.614 288.727 115.614 290.545C115.614 292.386 116.045 294.011 116.909 295.42C117.773 296.83 118.966 297.932 120.489 298.727C122.011 299.523 123.75 299.92 125.705 299.92ZM190.503 342.534C184.639 342.511 179.594 341.068 175.366 338.205C171.162 335.341 167.923 331.193 165.651 325.761C163.401 320.33 162.287 313.795 162.31 306.159C162.31 298.545 163.435 292.057 165.685 286.693C167.957 281.33 171.196 277.25 175.401 274.455C179.628 271.636 184.662 270.227 190.503 270.227C196.344 270.227 201.366 271.636 205.571 274.455C209.798 277.273 213.048 281.364 215.321 286.727C217.594 292.068 218.719 298.545 218.696 306.159C218.696 313.818 217.56 320.364 215.287 325.795C213.037 331.227 209.81 335.375 205.605 338.239C201.401 341.102 196.366 342.534 190.503 342.534ZM190.503 330.295C194.503 330.295 197.696 328.284 200.082 324.261C202.469 320.239 203.651 314.205 203.628 306.159C203.628 300.864 203.082 296.455 201.991 292.932C200.923 289.409 199.401 286.761 197.423 284.989C195.469 283.216 193.162 282.33 190.503 282.33C186.526 282.33 183.344 284.318 180.957 288.295C178.571 292.273 177.366 298.227 177.344 306.159C177.344 311.523 177.878 316 178.946 319.591C180.037 323.159 181.571 325.841 183.548 327.636C185.526 329.409 187.844 330.295 190.503 330.295ZM267.438 327.909V324.227C267.438 321.432 268.028 318.864 269.21 316.523C270.415 314.159 272.153 312.273 274.426 310.864C276.722 309.432 279.517 308.716 282.812 308.716C286.153 308.716 288.96 309.42 291.233 310.83C293.528 312.239 295.256 314.125 296.415 316.489C297.597 318.83 298.188 321.409 298.188 324.227V327.909C298.188 330.705 297.597 333.284 296.415 335.648C295.233 337.989 293.494 339.864 291.199 341.273C288.903 342.705 286.108 343.42 282.812 343.42C279.472 343.42 276.665 342.705 274.392 341.273C272.119 339.864 270.392 337.989 269.21 335.648C268.028 333.284 267.438 330.705 267.438 327.909ZM277.358 324.227V327.909C277.358 329.523 277.744 331.045 278.517 332.477C279.313 333.909 280.744 334.625 282.812 334.625C284.881 334.625 286.29 333.92 287.04 332.511C287.813 331.102 288.199 329.568 288.199 327.909V324.227C288.199 322.568 287.835 321.023 287.108 319.591C286.381 318.159 284.949 317.443 282.812 317.443C280.767 317.443 279.347 318.159 278.551 319.591C277.756 321.023 277.358 322.568 277.358 324.227ZM231.608 287.955V284.273C231.608 281.455 232.21 278.875 233.415 276.534C234.619 274.17 236.358 272.284 238.631 270.875C240.926 269.466 243.699 268.761 246.949 268.761C250.313 268.761 253.131 269.466 255.403 270.875C257.676 272.284 259.403 274.17 260.585 276.534C261.767 278.875 262.358 281.455 262.358 284.273V287.955C262.358 290.773 261.756 293.352 260.551 295.693C259.369 298.034 257.631 299.909 255.335 301.318C253.063 302.705 250.267 303.398 246.949 303.398C243.631 303.398 240.824 302.693 238.528 301.284C236.256 299.852 234.528 297.977 233.347 295.659C232.188 293.318 231.608 290.75 231.608 287.955ZM241.597 284.273V287.955C241.597 289.614 241.983 291.148 242.756 292.557C243.551 293.966 244.949 294.67 246.949 294.67C249.04 294.67 250.46 293.966 251.21 292.557C251.983 291.148 252.369 289.614 252.369 287.955V284.273C252.369 282.614 252.006 281.068 251.278 279.636C250.551 278.205 249.108 277.489 246.949 277.489C244.926 277.489 243.528 278.216 242.756 279.67C241.983 281.125 241.597 282.659 241.597 284.273ZM236.108 341L284.108 271.182H293.04L245.04 341H236.108Z" fill="#874FF7"/>
</svg>
